. 
  
http://www.torrenting.com/        :     Greatest Movie Tracker on The Net!!!
 
http://www.Torrenting.com          :     Once & For all ;)


               www . Torrenting . Com 

(((((((((((((= Enjoy No RAR releases =))))))))))))))))))))


...................................NFO:....................................

.                                                                                                     
       
     
     
       
       
     
     
                                         
                                         
                EXVID                    
                                         
         
                                         
         Filled the Archives             
                                         
         
                                         
                With:                    
                                         
         
                                         
                                    
     E240                           
                                    
     SP               (C) 2009      
                                         
     
     
     
                                                                                  
                                                                                   
        The.Baader.Meinhof.Complex.2008.PROPER.DVDRip.XviD-EXViD                    
                                                                                   
                                                                                  
     
                                                                                               
EXViD aims to iNTERNAL those releases which have been lost in the archives.
EXViD aims to PRE non-internal releases which have poor sources and are likely skipped by others.
 
http://www.imdb.com/title/tt0765432/
Subtitles: EN, NL, FR
Date: 2011.08

Director: Uli Edel

Genres: Action | Biography | Crime | Drama | History

Plot:
Germany in the 1970s: Murderous bomb attacks, the threat of terrorism and the fear of the
enemy inside are rocking the very foundations of the yet fragile German democracy. The
radicalised children of the Nazi generation lead by Andreas Baader, Ulrike Meinhof and Gudrun
Ensslin are fighting a violent war against what they perceive as the new face of fascism:
American imperialism supported by the German establishment, many of whom have a Nazi past.
Their aim is to create a more human society but by employing inhuman means they not only
spread terror and bloodshed, they also lose their own humanity. The man who understands them
is also their hunter: the head of the German police force Horst Herold. And while he succeeds
in his relentless pursuit of the young terrorists, he knows he's only dealing with the tip of
the iceberg.

Cast:
Martina Gedeck 	 ... 	 Ulrike Meinhof
Moritz Bleibtreu 	 ... 	 Andreas Baader
Johanna Wokalek 	 ... 	 Gudrun Ensslin
Nadja Uhl 	 ... 	 Brigitte Mohnhaupt
Stipe Erceg 	 ... 	 Holger Meins
Niels-Bruno Schmidt 	 ... 	 Jan Carl Raspe (as Niels Bruno Schmidt)
Vinzenz Kiefer 	 ... 	 Peter-Jrgen Boock
Simon Licht 	 ... 	 Horst Mahler
Alexandra Maria Lara 	 ... 	 Petra Schelm
Daniel Lommatzsch 	 ... 	 Christian Klar
Sebastian Blomberg 	 ... 	 Rudi Dutschke
Heino Ferch 	 ... 	 Horst Herold Assistant
Jan Josef Liefers 	 ... 	 Peter Homann
Eckhard Dilssner 	 ... 	 Horst Bubeck
Hannah Herzsprung 	 ... 	 Susanne Albrecht

Stats:
Format                           : AVI
Format/Info                      : Audio Video Interleave
File size                        : 1.37 GiB
Duration                         : 2h 23mn
Overall bit rate                 : 1 365 Kbps
Writing application              : Nandub v1.0rc2
Writing library                  : Nandub build 1852/release

Video
ID                               : 0
Format                           : MPEG-4 Visual
Format profile                   : Advanced Simple@L5
Format settings, BVOP            : 2
Format settings, QPel            : No
Format settings, GMC             : No warppoints
Format settings, Matrix          : Default (H.263)
Codec ID                         : XVID
Codec ID/Hint                    : XviD
Duration                         : 2h 23mn
Bit rate                         : 1 230 Kbps
Width                            : 624 pixels
Height                           : 336 pixels
Display aspect ratio             : 1.857
Frame rate                       : 25.000 fps
Color space                      : YUV
Chroma subsampling               : 4:2:0
Bit depth                        : 8 bits
Scan type                        : Progressive
Compression mode                 : Lossy
Bits/(Pixel*Frame)               : 0.235
Stream size                      : 1.23 GiB (90%)
Writing library                  : XviD 64

Audio
ID                               : 1
Format                           : MPEG Audio
Format version                   : Version 1
Format profile                   : Layer 3
Mode                             : Joint stereo
Codec ID                         : 55
Codec ID/Hint                    : MP3
Duration                         : 2h 23mn
Bit rate mode                    : Variable
Bit rate                         : 128 Kbps
Channel(s)                       : 2 channels
Sampling rate                    : 48.0 KHz
Compression mode                 : Lossy
Stream size                      : 125 MiB (9%)
Alignment                        : Aligned on interleaves
Interleave, duration             : 24 ms (0.60 video frame)
Interleave, preload duration     : 462 ms
Writing library                  : LAME3.98r
Encoding settings                : -m j -V 4 -q 3 -lowpass 17 --abr 128




Release notes:
ESPiSE rip was nuked for fansubs, so here's a fresh rip with retail subs.

enjoy!

Looking for:
75TB+ Archives
DUTCH/FLEMiSH Archives
                                                                                                    
Greets: CRBS EPiSODE FiCO FLS iLS KLASSiGER LiPSYNC MADE NODLABS RUNNER SPRiNTER      
   

                                                                    ASCII DONE BY XX^NFO 2oo9